<?xml version="1.0" encoding="UTF-8"?>
<svg id="Ebene_1" xmlns="http://www.w3.org/2000/svg" version="1.1" viewBox="0 0 119.1 60">
  <!-- Generator: Adobe Illustrator 29.6.1, SVG Export Plug-In . SVG Version: 2.1.1 Build 9)  -->
  <defs>
    <style>
      .st0 {
        fill: #231f20;
      }

      .st1 {
        fill: #ee2b56;
      }
    </style>
  </defs>
  <g>
    <rect class="st1" x="3.1" y="13.9" width="20.7" height="20.7"/>
    <rect class="st1" x="25.9" y="13.9" width="20.7" height="20.7"/>
    <rect class="st1" x="48.7" y="13.9" width="20.7" height="20.7"/>
    <rect class="st1" x="13.5" y="24.3" width="20.7" height="20.7"/>
    <rect class="st1" x="38.4" y="3.6" width="20.7" height="20.7"/>
  </g>
  <g>
    <g>
      <path class="st0" d="M78.2,17.3h-6.6v-3.3h17.1v3.3h-6.6v17.4h-3.8v-17.4Z"/>
      <path class="st0" d="M107.9,27c0,1.2-.2,2.4-.7,3.4-.4,1-1.1,1.9-1.8,2.6-.8.7-1.7,1.2-2.8,1.6-1.1.4-2.2.6-3.5.6s-2.4-.2-3.5-.6c-1.1-.4-2-.9-2.8-1.6-.8-.7-1.4-1.6-1.8-2.6-.4-1-.7-2.1-.7-3.4v-13.1h3.8v13c0,.5,0,1,.2,1.6.2.6.4,1.1.8,1.5.4.5.9.9,1.5,1.2.6.3,1.4.5,2.3.5s1.7-.2,2.3-.5c.6-.3,1.1-.7,1.5-1.2.4-.5.6-1,.8-1.5.2-.6.2-1.1.2-1.6v-13h3.8v13.1Z"/>
    </g>
    <g>
      <path class="st0" d="M86.4,37.5c-.8-.3-1.7-.5-2.5-.5-2.3,0-3.6,1.4-3.6,3.3s1.2,3.3,3.3,3.3,1,0,1.3-.1v-2.4h-2.1v-1.4h4v4.9c-1,.3-2.1.5-3.2.5-3.2,0-5.4-1.5-5.4-4.6s2.1-4.9,5.4-4.9,2,.1,2.9.4v1.5Z"/>
      <path class="st0" d="M88.7,38.1h1.7v1.5h0c0-.6.9-1.7,2-1.7s.4,0,.6,0v1.8c-.2,0-.5-.1-.8-.1-1.5,0-1.5,1.8-1.5,2.8v2.5h-1.9v-6.8Z"/>
      <path class="st0" d="M94.5,38.5c.7-.3,1.7-.5,2.5-.5,2.2,0,3.1.9,3.1,2.8v.9c0,.7,0,1.2,0,1.7,0,.5,0,1,0,1.5h-1.7c0-.4,0-.8,0-1h0c-.4.7-1.4,1.2-2.2,1.2-1.3,0-2.5-.7-2.5-2s.5-1.6,1.2-1.9c.7-.3,1.6-.4,2.4-.4h1c0-1.1-.5-1.5-1.6-1.5s-1.6.3-2.2.7v-1.5ZM96.7,43.7c.6,0,1-.2,1.3-.6.3-.4.4-.9.4-1.4h-.8c-.8,0-2.1.1-2.1,1.2s.5.8,1.2.8Z"/>
      <path class="st0" d="M101.7,38.1h5.7v1.4l-3.6,3.9h3.7v1.4h-6v-1.4l3.7-4h-3.5v-1.4Z"/>
    </g>
  </g>
  <rect class="st1" x="109.1" y="38.1" width="6.9" height="6.9"/>
  <g>
    <path class="st0" d="M6.1,54.7v-.7h2.6v2.3c-.4.3-.8.6-1.2.7-.4.2-.9.2-1.3.2s-1.1-.1-1.6-.4c-.5-.3-.9-.6-1.1-1.1-.2-.5-.4-1-.4-1.6s.1-1.2.4-1.7c.2-.5.6-.9,1.1-1.1.5-.3,1-.4,1.6-.4s.8,0,1.2.2c.4.1.6.3.8.6.2.3.4.6.5,1l-.7.2c0-.3-.2-.6-.3-.7-.1-.2-.3-.3-.6-.4-.3-.1-.5-.2-.8-.2s-.7,0-1,.2c-.3.1-.5.3-.7.4-.2.2-.3.4-.4.6-.2.4-.2.8-.2,1.2s0,1,.3,1.4c.2.4.5.6.8.8.4.2.7.3,1.1.3s.7,0,1-.2c.3-.1.6-.3.8-.4v-1.1h-1.8Z"/>
    <path class="st0" d="M9.8,57.1v-4.4h.7v.7c.2-.3.3-.5.5-.6.1-.1.3-.2.5-.2.3,0,.5,0,.8.2l-.3.7c-.2-.1-.4-.2-.5-.2s-.3,0-.4.1c-.1,0-.2.2-.3.4,0,.3-.1.6-.1.9v2.3h-.7Z"/>
    <path class="st0" d="M15.5,56.6c-.3.2-.5.4-.8.5-.3,0-.5.1-.8.1-.5,0-.9-.1-1.1-.4-.3-.2-.4-.5-.4-.9s0-.4.1-.6c0-.2.2-.3.4-.4.2-.1.3-.2.5-.2.1,0,.4,0,.7-.1.6,0,1.1-.2,1.3-.3,0-.1,0-.2,0-.2,0-.3,0-.5-.2-.6-.2-.2-.5-.3-.9-.3s-.6,0-.8.2c-.2.1-.3.3-.4.7h-.7c0-.4.2-.7.3-.9.2-.2.4-.3.7-.4.3-.1.6-.2,1-.2s.7,0,.9.1c.2,0,.4.2.5.3.1.1.2.3.2.5,0,.1,0,.4,0,.7v1c0,.7,0,1.1,0,1.3,0,.2,0,.4.2.5h-.8c0-.2-.1-.3-.1-.6ZM15.5,54.9c-.3.1-.7.2-1.2.3-.3,0-.5,0-.7.2-.1,0-.2.1-.3.2,0,.1-.1.2-.1.4,0,.2,0,.4.2.5.2.1.4.2.7.2s.6,0,.8-.2c.2-.1.4-.3.5-.5,0-.2.1-.4.1-.8v-.3Z"/>
    <path class="st0" d="M17,57.1v-.6l2.8-3.2c-.3,0-.6,0-.8,0h-1.8v-.6h3.6v.5l-2.4,2.8-.5.5c.3,0,.7,0,.9,0h2.1v.6h-3.9Z"/>
    <path class="st0" d="M28.1,51h.8v3.5c0,.6,0,1.1-.2,1.5-.1.4-.4.7-.8.9-.4.2-.8.3-1.4.3s-1,0-1.4-.3c-.4-.2-.6-.5-.8-.9-.2-.4-.2-.9-.2-1.5v-3.5h.8v3.5c0,.5,0,.9.1,1.2,0,.3.3.4.5.6.2.1.5.2.9.2.6,0,1-.1,1.3-.4.3-.3.4-.8.4-1.6v-3.5Z"/>
    <path class="st0" d="M30.2,57.1v-4.4h.7v.6c.3-.5.8-.7,1.4-.7s.5,0,.7.1c.2,0,.4.2.5.4.1.2.2.3.2.6,0,.1,0,.4,0,.7v2.7h-.7v-2.7c0-.3,0-.5,0-.7,0-.2-.2-.3-.3-.4-.1,0-.3-.1-.5-.1-.3,0-.6.1-.8.3-.2.2-.3.6-.3,1.2v2.4h-.7Z"/>
    <path class="st0" d="M35,51.9v-.9h.7v.9h-.7ZM35,57.1v-4.4h.7v4.4h-.7Z"/>
    <path class="st0" d="M38.1,57.1l-1.7-4.4h.8l.9,2.7c.1.3.2.6.3.9,0-.2.2-.5.3-.8l1-2.7h.8l-1.7,4.4h-.7Z"/>
    <path class="st0" d="M44.2,55.7h.8c-.1.6-.3.9-.7,1.2-.3.2-.8.4-1.3.4s-1.2-.2-1.5-.6c-.4-.4-.6-1-.6-1.7s.2-1.3.6-1.7c.4-.4.9-.6,1.5-.6s1.1.2,1.5.6c.4.4.6,1,.6,1.7s0,.1,0,.2h-3.3c0,.5.2.9.4,1.1.2.3.6.4.9.4s.5,0,.7-.2c.2-.1.3-.4.5-.7ZM41.7,54.5h2.5c0-.4-.1-.7-.3-.8-.2-.3-.6-.4-.9-.4s-.6.1-.9.3c-.2.2-.4.5-.4.9Z"/>
    <path class="st0" d="M45.9,57.1v-4.4h.7v.7c.2-.3.3-.5.5-.6.1-.1.3-.2.5-.2.3,0,.5,0,.8.2l-.3.7c-.2-.1-.4-.2-.6-.2s-.3,0-.4.1c-.1,0-.2.2-.3.4,0,.3-.1.6-.1.9v2.3h-.8Z"/>
    <path class="st0" d="M48.4,55.8h.7c0,.2.2.4.3.6.2.2.5.2.8.2s.6,0,.8-.2c.2-.1.2-.3.2-.5s0-.3-.2-.4c-.1,0-.4-.2-.8-.3-.6-.1-.9-.3-1.1-.4-.2-.1-.4-.2-.5-.4-.1-.2-.2-.4-.2-.6s0-.4.1-.5c0-.2.2-.3.4-.4.1,0,.3-.2.5-.2.2,0,.4,0,.6,0,.3,0,.7,0,.9.2.3,0,.5.2.6.4.1.2.2.4.3.7h-.7c0-.1-.1-.3-.3-.4-.2-.1-.4-.2-.7-.2s-.6,0-.7.2c-.1.1-.2.2-.2.4s0,.2,0,.3c0,0,.2.1.3.2,0,0,.3,0,.7.2.5.1.9.3,1.1.3.2,0,.4.2.5.4.1.2.2.4.2.6s0,.5-.2.7c-.1.2-.4.4-.6.5s-.6.2-.9.2c-.6,0-1-.1-1.3-.4-.3-.2-.5-.6-.6-1.1Z"/>
    <path class="st0" d="M53,51.9v-.9h.7v.9h-.7ZM53,57.1v-4.4h.7v4.4h-.7Z"/>
    <path class="st0" d="M56.5,56.5v.7c-.1,0-.3,0-.5,0-.3,0-.5,0-.6-.1-.1,0-.3-.2-.3-.3,0-.1,0-.4,0-.9v-2.5h-.6v-.6h.6v-1.1l.7-.5v1.5h.8v.6h-.8v2.6c0,.2,0,.4,0,.4,0,0,0,.1.1.1,0,0,.1,0,.3,0s.2,0,.3,0Z"/>
    <path class="st0" d="M57.2,58.8v-.7c0,0,.2,0,.3,0s.3,0,.4,0c0,0,.2-.1.2-.2,0,0,.1-.3.2-.6,0,0,0-.1,0-.2l-1.7-4.4h.8l.9,2.6c.1.3.2.7.3,1,0-.3.2-.7.3-1l.9-2.6h.7l-1.7,4.5c-.2.5-.3.8-.4,1-.1.2-.3.4-.5.5-.2.1-.4.2-.6.2s-.3,0-.5,0Z"/>
    <path class="st0" d="M63.6,54.9c0-.8.2-1.4.7-1.8.4-.3.8-.5,1.4-.5s1.1.2,1.5.6c.4.4.6,1,.6,1.7s0,1-.3,1.3c-.2.3-.4.6-.7.8-.3.2-.7.3-1.1.3-.6,0-1.1-.2-1.5-.6-.4-.4-.6-1-.6-1.7ZM64.4,54.9c0,.6.1,1,.4,1.3.2.3.6.4.9.4s.7-.1.9-.4c.2-.3.4-.7.4-1.3s-.1-1-.4-1.2c-.2-.3-.6-.4-.9-.4s-.7.1-.9.4c-.2.3-.4.7-.4,1.3Z"/>
    <path class="st0" d="M68.8,57.1v-3.8h-.7v-.6h.7v-.5c0-.3,0-.5,0-.7,0-.2.2-.4.4-.5.2-.1.4-.2.8-.2s.4,0,.7,0v.7c-.3,0-.4,0-.6,0-.2,0-.4,0-.5.1,0,0-.1.3-.1.5v.4h.9v.6h-.9v3.8h-.7Z"/>
    <path class="st0" d="M74.9,57.1v-5.4h-2v-.7h4.8v.7h-2v5.4h-.8Z"/>
    <path class="st0" d="M80.5,55.7h.8c-.1.6-.3.9-.7,1.2-.3.2-.8.4-1.3.4s-1.2-.2-1.5-.6c-.4-.4-.6-1-.6-1.7s.2-1.3.6-1.7c.4-.4.9-.6,1.5-.6s1.1.2,1.5.6c.4.4.6,1,.6,1.7s0,.1,0,.2h-3.3c0,.5.2.9.4,1.1.2.3.6.4.9.4s.5,0,.7-.2c.2-.1.3-.4.5-.7ZM78.1,54.5h2.5c0-.4-.1-.7-.3-.8-.2-.3-.6-.4-.9-.4s-.6.1-.9.3c-.2.2-.4.5-.4.9Z"/>
    <path class="st0" d="M85.1,55.5h.7c0,.6-.3,1-.6,1.3-.3.3-.7.4-1.2.4s-1.1-.2-1.5-.6c-.4-.4-.6-1-.6-1.7s0-.9.2-1.3c.2-.4.4-.6.7-.8.3-.2.7-.3,1.1-.3s.9.1,1.2.4c.3.2.5.6.6,1h-.7c0-.2-.2-.4-.4-.6-.2-.2-.4-.2-.6-.2-.4,0-.7.1-.9.4-.2.3-.4.7-.4,1.3s.1,1,.3,1.3c.2.3.5.4.9.4s.5,0,.7-.3c.2-.2.3-.5.4-.8Z"/>
    <path class="st0" d="M86.5,57.1v-6.1h.7v2.2c.3-.4.8-.6,1.3-.6s.6,0,.9.2c.2.1.4.3.5.5.1.2.2.6.2,1v2.8h-.7v-2.8c0-.4,0-.6-.2-.8-.2-.2-.4-.3-.7-.3s-.4,0-.6.2c-.2.1-.3.3-.4.5,0,.2-.1.5-.1.8v2.4h-.7Z"/>
    <path class="st0" d="M91.3,57.1v-4.4h.7v.6c.3-.5.8-.7,1.4-.7s.5,0,.7.1c.2,0,.4.2.5.4.1.2.2.3.2.6,0,.1,0,.4,0,.7v2.7h-.7v-2.7c0-.3,0-.5,0-.7,0-.2-.2-.3-.3-.4-.1,0-.3-.1-.5-.1-.3,0-.6.1-.8.3-.2.2-.3.6-.3,1.2v2.4h-.7Z"/>
    <path class="st0" d="M95.7,54.9c0-.8.2-1.4.7-1.8.4-.3.8-.5,1.4-.5s1.1.2,1.5.6c.4.4.6,1,.6,1.7s0,1-.3,1.3c-.2.3-.4.6-.7.8-.3.2-.7.3-1.1.3-.6,0-1.1-.2-1.5-.6-.4-.4-.6-1-.6-1.7ZM96.5,54.9c0,.6.1,1,.4,1.3.2.3.6.4.9.4s.7-.1.9-.4c.2-.3.4-.7.4-1.3s-.1-1-.4-1.2c-.2-.3-.6-.4-.9-.4s-.7.1-.9.4c-.2.3-.4.7-.4,1.3Z"/>
    <path class="st0" d="M100.7,57.1v-6.1h.7v6.1h-.7Z"/>
    <path class="st0" d="M102.4,54.9c0-.8.2-1.4.7-1.8.4-.3.8-.5,1.4-.5s1.1.2,1.5.6c.4.4.6,1,.6,1.7s0,1-.3,1.3c-.2.3-.4.6-.7.8-.3.2-.7.3-1.1.3-.6,0-1.1-.2-1.5-.6-.4-.4-.6-1-.6-1.7ZM103.1,54.9c0,.6.1,1,.4,1.3.2.3.6.4.9.4s.7-.1.9-.4c.2-.3.4-.7.4-1.3s-.1-1-.4-1.2c-.2-.3-.6-.4-.9-.4s-.7.1-.9.4c-.2.3-.4.7-.4,1.3Z"/>
    <path class="st0" d="M107.3,57.5h.7c0,.3.1.5.3.6.2.1.4.2.8.2s.6,0,.8-.2c.2-.1.3-.3.4-.6,0-.2,0-.5,0-1-.3.4-.7.6-1.2.6s-1.1-.2-1.4-.7c-.3-.4-.5-1-.5-1.6s0-.8.2-1.2c.2-.4.4-.6.7-.8.3-.2.6-.3,1-.3s1,.2,1.3.6v-.5h.7v3.8c0,.7,0,1.2-.2,1.5-.1.3-.4.5-.7.7-.3.2-.7.2-1.1.2s-1-.1-1.3-.4c-.3-.2-.5-.6-.5-1.1ZM107.9,54.8c0,.6.1,1,.3,1.3s.5.4.9.4.6-.1.9-.4c.2-.3.3-.7.3-1.2s-.1-.9-.4-1.2c-.2-.3-.5-.4-.9-.4s-.6.1-.9.4c-.2.3-.3.7-.3,1.2Z"/>
    <path class="st0" d="M112.1,58.8v-.7c0,0,.2,0,.3,0s.3,0,.4,0c0,0,.2-.1.2-.2,0,0,.1-.3.2-.6,0,0,0-.1,0-.2l-1.7-4.4h.8l.9,2.6c.1.3.2.7.3,1,0-.3.2-.7.3-1l.9-2.6h.7l-1.7,4.5c-.2.5-.3.8-.4,1-.1.2-.3.4-.5.5-.2.1-.4.2-.6.2s-.3,0-.5,0Z"/>
  </g>
</svg>