<?xml version="1.0" encoding="UTF-8"?>
<svg id="Ebene_1" xmlns="http://www.w3.org/2000/svg" version="1.1" viewBox="0 0 120 48">
  <!-- Generator: Adobe Illustrator 29.6.1, SVG Export Plug-In . SVG Version: 2.1.1 Build 9)  -->
  <defs>
    <style>
      .st0 {
        fill: #231f20;
      }

      .st1 {
        fill: #b1b3b5;
      }

      .st2 {
        fill: #b1b3b6;
      }
    </style>
  </defs>
  <g>
    <rect class="st1" x="2.9" y="13.5" width="20.9" height="20.9"/>
    <rect class="st1" x="25.9" y="13.5" width="20.9" height="20.9"/>
    <rect class="st1" x="49" y="13.5" width="20.9" height="20.9"/>
    <rect class="st1" x="13.4" y="23.9" width="20.9" height="20.9"/>
    <rect class="st1" x="38.6" y="3" width="20.9" height="20.9"/>
  </g>
  <g>
    <g>
      <path class="st0" d="M78.9,16.9h-6.7v-3.3h17.3v3.3h-6.7v17.6h-3.8v-17.6h-.1Z"/>
      <path class="st0" d="M108.9,26.8c0,1.2-.2,2.4-.7,3.4-.4,1-1.1,1.9-1.8,2.6-.8.7-1.7,1.2-2.8,1.6-1.1.4-2.2.6-3.5.6s-2.4-.2-3.5-.6-2-.9-2.8-1.6-1.4-1.6-1.8-2.6-.7-2.1-.7-3.4v-13.3h3.8v13.2c0,.5,0,1,.2,1.6s.4,1.1.8,1.5c.4.5.9.9,1.5,1.2.6.3,1.4.5,2.3.5s1.7-.2,2.3-.5c.6-.3,1.1-.7,1.5-1.2s.6-1,.8-1.5c.2-.6.2-1.1.2-1.6v-13.2h4.3v13.3Z"/>
    </g>
    <g>
      <path class="st0" d="M87.2,37.3c-.8-.3-1.7-.5-2.5-.5-2.3,0-3.6,1.4-3.6,3.3s1.2,3.3,3.3,3.3,1,0,1.3-.1v-2.4h-2.1v-1.4h4v5c-1,.3-2.1.5-3.2.5-3.2,0-5.5-1.5-5.5-4.7s2.1-5,5.5-5,2,.1,2.9.4v1.5h-.1Z"/>
      <path class="st0" d="M89.5,38h1.7v1.5h0c0-.6.9-1.7,2-1.7s.4,0,.6,0v1.8c-.2,0-.5-.1-.8-.1-1.5,0-1.5,1.8-1.5,2.8v2.5h-1.9v-6.9h-.1Z"/>
      <path class="st0" d="M95.4,38.3c.7-.3,1.7-.5,2.5-.5,2.2,0,3.1.9,3.1,2.8v4.1h-1.7v-1h0c-.4.7-1.4,1.2-2.2,1.2-1.3,0-2.5-.7-2.5-2s.5-1.6,1.2-1.9c.7-.3,1.6-.4,2.4-.4h1c0-1.1-.5-1.5-1.6-1.5s-1.6.3-2.2.7c0,0,0-1.5,0-1.5ZM97.6,43.7c.6,0,1-.2,1.3-.6.3-.4.4-.9.4-1.4h-.8c-.8,0-2.1.1-2.1,1.2s.5.8,1.2.8Z"/>
      <path class="st0" d="M102.7,38h5.8v1.4l-3.6,3.9h3.7v1.4h-6.1v-1.4l3.7-4h-3.5v-1.4h0Z"/>
    </g>
  </g>
  <rect class="st2" x="110.1" y="38" width="7" height="7"/>
</svg>