<?xml version="1.0" encoding="UTF-8"?>
<svg id="Layer_1" xmlns="http://www.w3.org/2000/svg" version="1.1" viewBox="0 0 240 100">
  <!-- Generator: Adobe Illustrator 29.6.1, SVG Export Plug-In . SVG Version: 2.1.1 Build 9)  -->
  <defs>
    <style>
      .st0 {
        fill: #231f20;
      }

      .st1 {
        fill: #be0000;
      }
    </style>
  </defs>
  <g>
    <polygon class="st1" points="52.3 90.2 43 81.1 43 71.6 30.9 71.6 21.6 62.4 21.6 23.9 17.2 23.9 17.2 9.4 40.5 9.4 40.5 23.9 36 23.9 36 57.2 43 57.2 43 42.5 38.5 42.5 38.5 28.1 61.9 28.1 61.9 42.5 57.4 42.5 57.4 57.2 64.2 57.2 64.2 23.9 59.7 23.9 59.7 9.4 83.1 9.4 83.1 23.9 78.6 23.9 78.6 62.4 69.4 71.6 57.4 71.6 57.4 75.8 85.6 75.8 85.6 42.5 81.1 42.5 81.1 28.1 104.5 28.1 104.5 42.5 100 42.5 100 81.1 90.7 90.2 52.3 90.2"/>
    <g>
      <path class="st1" d="M98.6,86.6h0c-1.1,0-1.9.9-1.9,2s.9,2,1.9,2,1.9-.9,1.9-2-.9-2-1.9-2h0ZM98.6,90.2c-.9,0-1.6-.7-1.6-1.7s.7-1.7,1.6-1.7h0c.9,0,1.6.7,1.6,1.7s-.7,1.7-1.6,1.7h0Z"/>
      <path class="st1" d="M99,88.6h0c.2,0,.4-.3.4-.5s0-.4-.2-.4c-.1,0-.3-.2-.7-.2s-.4,0-.6,0v2.2h.3v-.9h.2c.3,0,.4.1.5.4,0,.3,0,.5.2.6h.4c0,0,0-.2-.1-.5,0-.3-.2-.5-.4-.5ZM98.5,88.5h-.2v-.7c0,0,.1,0,.2,0,.4,0,.5.2.5.4,0,.3-.2.4-.5.4h0Z"/>
    </g>
  </g>
  <g>
    <path class="st0" d="M121.9,35c0,1.1,0,2,0,2.6,0,.3.1.6.5.6.2,0,.4,0,.6,0s.2,0,.2.1,0,.1-.2.1c-.8,0-1.6,0-1.9,0s-1,0-1.5,0-.2,0-.2-.1,0-.1.2-.1.3,0,.4,0c.2,0,.3-.3.3-.7,0-.5,0-1.5,0-2.5v-4.9c-.5,0-1.2,0-1.8,0-.7,0-1,0-1.2.4-.1.2-.2.3-.2.4s0,.1-.1.1-.1,0-.1-.2c0-.2.2-1.3.2-1.4,0-.2,0-.2.1-.2,0,0,.2.1.5.1.3,0,.8,0,1.2,0h4.8c.4,0,.7,0,.8,0,.2,0,.3,0,.3,0,0,0,0,0,0,.2s0,1.1,0,1.4c0,.1,0,.2-.1.2,0,0-.1,0-.1-.2,0,0,0-.1,0-.1,0-.3-.3-.6-1.4-.7-.3,0-.8,0-1.5,0,0,0,0,4.9,0,4.9Z"/>
    <path class="st0" d="M133.6,33.2s0,0,0,0v-.2c0-1.8,0-2.2,0-2.5,0-.4-.1-.6-.5-.7,0,0-.3,0-.5,0s-.2,0-.2-.1,0-.1.2-.1c.7,0,1.4,0,1.7,0s1,0,1.5,0,.2,0,.2.1,0,.1-.2.1-.2,0-.3,0c-.3,0-.4.3-.4.7,0,.4,0,.7,0,2.5v2.1c0,1.1,0,2,0,2.6,0,.3.1.6.5.6.2,0,.4,0,.6,0s.2,0,.2.1,0,.1-.2.1c-.8,0-1.5,0-1.9,0s-1,0-1.5,0-.2,0-.2-.1,0-.1.2-.1.3,0,.4,0c.2,0,.3-.3.3-.7,0-.5,0-1.5,0-2.5v-1.1s0,0,0,0h-4.6s0,0,0,0v1.1c0,1.1,0,2,0,2.6,0,.3.1.6.5.6.2,0,.4,0,.6,0s.2,0,.2.1,0,.1-.2.1c-.8,0-1.5,0-1.9,0s-1,0-1.5,0-.2,0-.2-.1,0-.1.2-.1.3,0,.4,0c.2,0,.3-.3.3-.7,0-.5,0-1.5,0-2.5v-2.1c0-1.8,0-2.2,0-2.5,0-.4-.1-.6-.5-.7,0,0-.3,0-.5,0s-.2,0-.2-.1,0-.1.2-.1c.7,0,1.4,0,1.7,0s1,0,1.5,0,.2,0,.2.1-.1.1-.2.1-.2,0-.3,0c-.3,0-.4.3-.4.7,0,.4,0,.7,0,2.5v.2c0,0,0,0,0,0h4.6,0Z"/>
    <path class="st0" d="M139,32.9c0-1.8,0-2.2,0-2.5,0-.4-.1-.6-.5-.7,0,0-.3,0-.5,0s-.2,0-.2-.1,0-.1.3-.1c.6,0,1.1,0,1.7,0s2.8,0,3,0c.2,0,.4,0,.5,0,0,0,.1,0,.2,0s0,0,0,.1,0,.2,0,.8c0,.1,0,.6,0,.8,0,0,0,.1-.1.1s-.1,0-.1-.2,0-.2,0-.4c0-.2-.2-.4-.8-.4-.2,0-1.5,0-1.7,0s0,0,0,.1v3c0,0,0,.1,0,.1.3,0,1.6,0,1.9,0,.3,0,.5,0,.6-.2,0-.1.1-.2.2-.2s0,0,0,.1,0,.3,0,.9c0,.2,0,.7,0,.8s0,.2-.1.2-.1-.1-.1-.2c0-.1,0-.2,0-.4,0-.2-.2-.4-.7-.5-.2,0-1.4,0-1.7,0s0,0,0,.1v1c0,.4,0,1.5,0,1.9,0,.8.2,1,1.4,1s.8,0,1.1-.1.5-.4.5-.9c0-.1,0-.2.1-.2s0,.1,0,.2c0,.3,0,1.1-.2,1.3,0,.3-.2.3-.7.3-1.1,0-2.1,0-3.3,0s-1,0-1.5,0-.2,0-.2-.1,0-.1.2-.1.3,0,.4,0c.2,0,.3-.3.3-.7,0-.5,0-1.5,0-2.5v-2.1h0Z"/>
  </g>
  <g>
    <path class="st0" d="M114.3,50c0,2.4.5,3.4,1.3,4,.7.6,1.5.7,2.1.7s1.6-.2,2.3-.9c.9-.9.9-2.4.9-4.1v-2.1c0-2.5,0-3,0-3.5,0-.6-.2-.8-.7-.9-.1,0-.4,0-.6,0s-.3,0-.3-.2.1-.2.3-.2c.8,0,1.9,0,1.9,0,.2,0,1.2,0,1.9,0s.3,0,.3.2,0,.2-.3.2-.3,0-.5,0c-.4,0-.6.4-.6.9,0,.5,0,1,0,3.5v1.8c0,1.8-.2,3.8-1.6,5-1.2,1-2.3,1.2-3.4,1.2s-2.4,0-3.7-1.1c-.8-.8-1.5-2-1.5-4.4v-2.4c0-2.5,0-3,0-3.5,0-.6-.2-.8-.7-.9-.1,0-.4,0-.6,0s-.3,0-.3-.2.1-.2.4-.2c.9,0,1.9,0,2.4,0s1.4,0,2,0,.4,0,.4.2,0,.2-.3.2-.3,0-.5,0c-.4,0-.6.4-.6.9,0,.5,0,1,0,3.5v2.3h0Z"/>
    <path class="st0" d="M126,43.2c0-.3,0-.6.2-.6s.3.2.6.5c.2.2,2.7,2.9,5.1,5.3,1.1,1.1,3.4,3.6,3.7,3.8l-.2-7.5c0-1-.2-1.3-.6-1.5-.2,0-.6,0-.9,0s-.3,0-.3-.2.2-.2.4-.2c.9,0,1.6,0,2,0s.8,0,1.6,0,.4,0,.4.2,0,.2-.3.2-.3,0-.5,0c-.5.1-.6.5-.6,1.4,0,3.5-.1,6.9-.2,10.4,0,.4,0,.5-.2.5s-.4-.2-.6-.4c-1-1-3.1-3.1-4.8-4.8-1.8-1.8-3.7-3.9-4-4.2l.2,7c0,1.3.2,1.7.6,1.8.3,0,.6.1.9.1s.3,0,.3.1-.2.2-.4.2c-1.1,0-1.7,0-2,0s-.9,0-1.8,0-.4,0-.4-.2,0-.1.3-.1.5,0,.7,0c.4-.1.5-.6.5-2,0-3.5.1-7.5.2-9.7h0Z"/>
    <path class="st0" d="M141.6,47.7c0-2.5,0-3,0-3.5,0-.6-.2-.8-.6-.9-.2,0-.4,0-.6,0s-.3,0-.3-.2.1-.1.4-.1c.6,0,1.7,0,2.1,0s1.4,0,2,0,.3,0,.3.1,0,.2-.3.2-.3,0-.5,0c-.4,0-.6.4-.6.9,0,.5,0,1,0,3.5v2.9c0,1.6,0,2.9,0,3.6,0,.4.2.7.7.8.2,0,.6,0,.8,0s.3,0,.3.1c0,.1-.1.2-.3.2-1.1,0-2.1,0-2.6,0s-1.4,0-2.1,0-.3,0-.3-.2,0-.1.3-.1.4,0,.6,0c.3,0,.4-.3.5-.8,0-.7,0-2,0-3.6v-2.9h0Z"/>
    <path class="st0" d="M148.2,44.5c-.4-.9-.7-1.1-1.2-1.2-.2,0-.5,0-.6,0s-.2,0-.2-.2.2-.2.4-.2c.9,0,1.8,0,2.4,0s1.2,0,2,0,.4,0,.4.2-.1.2-.2.2c-.3,0-.5,0-.6.1-.1,0-.2.2-.2.3,0,.2.1.7.4,1.3.9,2.4,2,5.3,2.9,7.5.7-1.8,2.9-7.2,3.3-8.3,0-.2.1-.5.1-.6s0-.3-.2-.3c-.2,0-.4,0-.7,0s-.3,0-.3-.1.1-.2.5-.2c.8,0,1.5,0,1.7,0s1.1,0,1.6,0,.4,0,.4.2-.1.2-.3.2-.5,0-.8.2c-.2.2-.5.4-.9,1.5-.6,1.5-1.1,2.4-2,4.5-1.1,2.4-1.8,4.2-2.2,5-.4,1-.5,1.2-.8,1.2s-.3-.2-.6-1l-4.1-10h0Z"/>
    <path class="st0" d="M162.1,47.7c0-2.5,0-3,0-3.5,0-.6-.2-.8-.7-.9-.1,0-.4,0-.6,0s-.3,0-.3-.2.1-.2.4-.2c.8,0,1.5,0,2.4,0s3.8,0,4.1,0c.3,0,.6,0,.7,0,0,0,.2,0,.3,0s.1,0,.1.2c0,.1,0,.3-.1,1.1,0,.2,0,.9,0,1.1,0,0,0,.2-.2.2s-.1,0-.1-.3,0-.3-.1-.5c-.1-.3-.3-.5-1.1-.6-.3,0-2,0-2.3,0s-.1,0-.1.2v4.2c0,.1,0,.2.1.2.4,0,2.2,0,2.6,0,.4,0,.6,0,.8-.2.1-.1.2-.2.3-.2s.1,0,.1.1,0,.4-.1,1.2c0,.3,0,1,0,1.1s0,.3-.1.3-.1-.2-.1-.3c0-.2,0-.3,0-.5,0-.3-.3-.6-.9-.6-.3,0-1.9,0-2.3,0s-.1,0-.1.2v1.3c0,.6,0,2.1,0,2.5,0,1.1.3,1.4,2,1.4s1.1,0,1.6-.2.6-.5.7-1.2c0-.2,0-.2.2-.2s.1.1.1.3c0,.4-.1,1.5-.2,1.8-.1.4-.3.4-.9.4-1.5,0-2.9,0-4.6,0s-1.3,0-2.1,0-.3,0-.3-.2,0-.1.3-.1.4,0,.6,0c.3,0,.4-.4.5-.9,0-.7,0-2,0-3.5v-2.9h0Z"/>
    <path class="st0" d="M172.1,47.7c0-2.5,0-3,0-3.5,0-.6-.2-.8-.7-.9-.1,0-.4,0-.6,0s-.3,0-.3-.2.1-.2.4-.2c.9,0,1.9,0,2.2,0,.6,0,1.8,0,2.3,0,1,0,2.1,0,3,.7.5.3,1.1,1.2,1.1,2.2s-.5,2.3-2.2,3.7c1.5,1.8,2.6,3.3,3.6,4.3.9,1,1.6,1.1,1.8,1.1.2,0,.3,0,.5,0s.2,0,.2.1c0,.1-.1.2-.3.2h-1.6c-.9,0-1.3,0-1.8-.3-.7-.4-1.3-1.2-2.2-2.4-.7-.9-1.4-2-1.6-2.3,0,0-.2-.1-.3-.1h-1.4c0,0-.1,0-.1.1v.2c0,1.5,0,2.8,0,3.5,0,.5.1.8.6.9.2,0,.6,0,.8,0s.2,0,.2.1c0,.1-.1.2-.3.2-.9,0-2.2,0-2.4,0s-1.4,0-2,0-.3,0-.3-.2,0-.1.3-.1.4,0,.6,0c.3,0,.4-.4.5-.9,0-.7,0-2,0-3.5v-2.9h0ZM174.1,49c0,.2,0,.2.1.3.3.1.8.2,1.2.2.7,0,.9,0,1.2-.3.5-.4,1-1.1,1-2.5,0-2.3-1.6-3-2.5-3s-.7,0-.9,0c-.1,0-.1,0-.1.2v5Z"/>
    <path class="st0" d="M183.8,55.2c-.3-.1-.3-.2-.3-.6,0-.9,0-1.9,0-2.2,0-.2,0-.4.2-.4s.2.2.2.3c0,.2,0,.6.1.8.4,1.2,1.3,1.7,2.4,1.7,1.5,0,2.2-1,2.2-1.9s-.2-1.6-1.6-2.6l-.8-.6c-1.8-1.4-2.4-2.6-2.4-3.9s1.5-3.1,3.8-3.1,1.1,0,1.5.1c.3,0,.5,0,.7.2.1,0,.2,0,.2.2,0,.2,0,.7,0,2s0,.5-.2.5-.2,0-.2-.3,0-.7-.4-1.1c-.2-.3-.7-.8-1.8-.8s-2,.7-2,1.7.4,1.3,1.7,2.4l.5.3c2,1.5,2.7,2.6,2.7,4.2s-.4,2.1-1.6,2.9c-.8.5-1.7.7-2.6.7s-1.7-.1-2.4-.4h0Z"/>
    <path class="st0" d="M193.7,47.7c0-2.5,0-3,0-3.5,0-.6-.2-.8-.6-.9-.2,0-.4,0-.6,0s-.3,0-.3-.2.1-.1.4-.1c.6,0,1.7,0,2.1,0s1.4,0,2,0,.4,0,.4.1-.1.2-.3.2-.3,0-.5,0c-.4,0-.6.4-.6.9,0,.5,0,1,0,3.5v2.9c0,1.6,0,2.9,0,3.6,0,.4.2.7.7.8.2,0,.6,0,.8,0s.3,0,.3.1c0,.1-.1.2-.3.2-1.1,0-2.1,0-2.6,0s-1.4,0-2.1,0-.3,0-.3-.2,0-.1.3-.1.4,0,.6,0c.3,0,.4-.3.5-.8,0-.7,0-2,0-3.6v-2.9h0Z"/>
    <path class="st0" d="M205.2,50.6c0,1.5,0,2.8,0,3.5,0,.5.1.8.6.9.2,0,.6,0,.8,0s.3,0,.3.1c0,.1-.1.2-.3.2-1.1,0-2.1,0-2.6,0s-1.4,0-2.1,0-.3,0-.3-.2,0-.1.3-.1.4,0,.6,0c.3,0,.4-.4.5-.9,0-.7,0-2,0-3.5v-6.7c-.6,0-1.6,0-2.4,0-.9,0-1.4.1-1.6.5-.2.2-.2.4-.3.6,0,.1,0,.2-.2.2s-.1,0-.1-.3c0-.3.3-1.8.3-1.9,0-.2.1-.3.2-.3s.3.2.7.2c.5,0,1.1,0,1.6,0h6.5c.5,0,.9,0,1.1,0,.2,0,.4,0,.4,0,.1,0,.1,0,.1.3,0,.3,0,1.5,0,1.9,0,.2,0,.3-.1.3s-.2,0-.2-.3c0,0,0-.1,0-.2,0-.4-.5-.9-1.9-.9-.4,0-1.1,0-2.1,0v6.7h0Z"/>
    <path class="st0" d="M215.5,51.1c0-.9-.2-1.2-.4-1.7-.1-.3-2.3-3.9-2.9-4.7-.4-.6-.8-1-1.1-1.2-.2-.1-.5-.2-.7-.2s-.2,0-.2-.2.1-.2.3-.2c.3,0,1.5,0,2.1,0s1,0,1.8,0,.2,0,.2.2-.1.1-.4.2c-.1,0-.2.2-.2.3s0,.3.2.6c.2.5,2.5,4.5,2.8,4.9.2-.4,2.2-4,2.5-4.5.2-.4.2-.6.2-.8s0-.3-.4-.4c-.1,0-.3,0-.3-.2s0-.2.3-.2c.5,0,1.1,0,1.6,0s1.4,0,1.8,0,.3,0,.3.1-.1.2-.3.2-.5,0-.7.2c-.4.2-.5.4-.9.8-.5.7-2.9,4.5-3.1,5.2-.2.6-.2,1.1-.2,1.7v1.3c0,.3,0,1,0,1.6,0,.5.2.8.7.9.2,0,.6,0,.8,0s.3,0,.3.1c0,.1-.1.2-.4.2-1,0-2.1,0-2.5,0s-1.4,0-2.1,0-.4,0-.4-.2,0-.1.3-.1.4,0,.6,0c.3,0,.5-.4.5-.9,0-.7,0-1.4,0-1.6v-1.3h0Z"/>
  </g>
  <g>
    <path class="st0" d="M131.1,72.1c0,3.9.8,5.6,2.1,6.6,1.2,1,2.4,1.1,3.4,1.1s2.6-.4,3.7-1.5,1.6-3.9,1.6-6.7v-3.4c0-4.1,0-4.8,0-5.7,0-.9-.3-1.3-1.2-1.5-.2,0-.7,0-1,0s-.5,0-.5-.2.2-.2.6-.2c1.4,0,3.1,0,3.1,0,.3,0,2,0,3.1,0s.6,0,.6.2-.2.2-.5.2-.5,0-.8,0c-.7.1-.9.6-1,1.5,0,.9,0,1.6,0,5.7v2.9c0,3-.3,6.2-2.6,8.1-1.9,1.6-3.8,1.9-5.6,1.9s-4,0-6-1.9c-1.4-1.2-2.4-3.2-2.4-7.1v-3.9c0-4.1,0-4.8,0-5.7,0-.9-.3-1.3-1.2-1.5-.2,0-.7,0-1.1,0s-.5,0-.5-.2.2-.2.6-.2c1.4,0,3.1,0,3.9,0s2.3,0,3.3,0,.6,0,.6.2-.2.2-.4.2-.5,0-.8,0c-.7.1-.9.6-1,1.5,0,.9,0,1.6,0,5.7v3.8h0Z"/>
    <path class="st0" d="M158.5,73.1c0,2.5,0,4.6.1,5.8,0,.8.2,1.3,1.1,1.5.4,0,1,.1,1.4.1s.4,0,.4.2-.2.3-.5.3c-1.8,0-3.5,0-4.2,0s-2.3,0-3.4,0-.5,0-.5-.3.1-.2.4-.2.7,0,1-.1c.5-.1.7-.7.8-1.5.1-1.1.1-3.3.1-5.7v-11c-1,0-2.7,0-4,.1-1.6,0-2.2.2-2.6.8-.3.4-.4.7-.5.9,0,.2-.1.3-.3.3s-.2-.1-.2-.4c0-.4.5-2.9.6-3.1,0-.3.2-.5.3-.5s.5.3,1.2.3c.8,0,1.8.1,2.7.1h10.7c.9,0,1.5,0,1.9-.1.4,0,.6-.1.7-.1.2,0,.2.2.2.6s0,2.4,0,3.1c0,.3,0,.4-.2.4s-.3-.1-.3-.5c0,0,0-.2,0-.3,0-.7-.8-1.5-3.2-1.5-.7,0-1.8,0-3.4,0v11h0Z"/>
    <path class="st0" d="M170.8,73.8c-.1,0-.2,0-.2.2l-1.5,3.8c-.3.7-.4,1.3-.4,1.6,0,.5.2.8,1.1.8h.4c.3,0,.4,0,.4.2s-.2.3-.5.3c-.9,0-2,0-2.9,0s-1.8,0-3.2,0-.5,0-.5-.3.2-.2.4-.2.6,0,.8,0c1.2-.2,1.8-1.1,2.3-2.4l6.8-16.9c.3-.8.5-1.1.8-1.1s.4.2.7.9c.6,1.5,5,12.5,6.7,16.6,1,2.4,1.8,2.8,2.4,2.9.4,0,.8.1,1.1.1s.4,0,.4.2-.2.3-1.2.3-3.1,0-5.3,0c-.5,0-.6,0-.6-.2s.1-.2.4-.2c.2,0,.4-.3.2-.6l-2.2-5.7c0-.1-.1-.2-.3-.2h-6,0ZM176.3,72.5c.1,0,.2,0,.1-.2l-2.4-6.7c0-.2-.2-.3-.3,0l-2.5,6.6c0,.1,0,.2.1.2h5Z"/>
    <path class="st0" d="M202.5,69.1c0,0,.2,0,.2-.2v-.6c0-4.1,0-4.8,0-5.7,0-.9-.3-1.3-1.2-1.5-.2,0-.7,0-1.1,0s-.5,0-.5-.2.2-.2.6-.2c1.5,0,3.1,0,3.9,0s2.3,0,3.4,0,.6,0,.6.2-.2.2-.5.2-.5,0-.8,0c-.7.1-.9.6-1,1.5,0,.9,0,1.6,0,5.7v4.7c0,2.5,0,4.6.1,5.8,0,.8.2,1.3,1.1,1.5.4,0,1,.1,1.4.1s.4,0,.4.2-.2.3-.5.3c-1.8,0-3.4,0-4.2,0s-2.3,0-3.4,0-.6,0-.6-.3.1-.2.4-.2.7,0,1-.1c.5-.1.7-.7.8-1.5.1-1.1.1-3.3.1-5.7v-2.4c0-.1,0-.2-.2-.2h-10.3c0,0-.2,0-.2.2v2.4c0,2.5,0,4.6.1,5.8,0,.8.2,1.3,1.1,1.5.4,0,1,.1,1.4.1s.4,0,.4.2-.2.3-.5.3c-1.8,0-3.4,0-4.2,0s-2.3,0-3.4,0-.5,0-.5-.3.1-.2.4-.2.7,0,1-.1c.5-.1.7-.7.8-1.5.1-1.1.1-3.3.1-5.7v-4.7c0-4.1,0-4.8,0-5.7,0-.9-.3-1.3-1.2-1.5-.2,0-.7,0-1.1,0s-.5,0-.5-.2.2-.2.6-.2c1.5,0,3.1,0,3.9,0s2.4,0,3.4,0,.6,0,.6.2-.2.2-.5.2-.6,0-.8,0c-.7.1-.9.6-1,1.6,0,.9,0,1.6,0,5.7v.6c0,.1,0,.2.2.2h10.3Z"/>
  </g>
  <g>
    <path class="st0" d="M117.3,69.5c0,1.3-.6,2.7-1.7,3.4-.6.4-1.2.5-1.8.5s-2-.3-2-2c0-1.3.7-2.7,1.7-3.4.5-.4,1.1-.6,1.8-.6,1.3,0,2,.7,2,2ZM114.1,68.7c-.6.8-1,2.2-1,3.2s.4,1.1.8,1.1.7-.2,1-.6c.6-.8,1.1-2.4,1.1-3.4,0-.6-.2-1.1-.8-1.1s-.8.2-1.2.8Z"/>
    <path class="st0" d="M119.6,67.7c.3-1.1.6-1.9,1.3-2.5.5-.5,1.1-.7,1.7-.7s1.2.4,1.2,1-.4.7-.7.7-.5-.1-.5-.4c0-.1,0-.3,0-.4,0-.3,0-.5-.4-.5s-.7.4-.9,1c-.2.5-.4,1.1-.5,1.8h1.3l-.2.5h-1.3c-.5,2.2-1.1,4.4-1.5,5.4-.5,1.1-1,1.9-1.9,2.4-.4.3-.8.3-1.2.3s-1-.3-1-.8.2-.6.5-.7c.2,0,.3,0,.5.2.2.4.5.6.8.6.4,0,.7-.4,1-1.3.3-1,1-3.7,1.5-6.1h-1c0,0,.2-.5.2-.5h1Z"/>
  </g>
</svg>